<svg xmlns="http://www.w3.org/2000/svg" viewBox="0 0 512 512" style="enable-background:new 0 0 512 512" xml:space="preserve">
    <circle style="fill:#fb8408" cx="256" cy="256" r="256"/>
    <path style="fill:#e9465e" d="M382.708 107.95v125.31a25.028 25.028 0 0 1-14.265 22.595l-37.845 18.026-28.374 13.52-32.037 15.25-14.183 6.76-14.191-6.76-32.037-15.26-28.374-13.51-37.845-18.026a25.028 25.028 0 0 1-14.265-22.595V107.95h253.416z"/>
    <path style="fill:#c0405c" d="M181.402 107.95v165.93l-37.845-18.026a25.028 25.028 0 0 1-14.265-22.595V107.95h52.11zM241.813 107.95v194.7l-32.037-15.26V107.95zM302.224 107.95V287.4l-32.037 15.25v-194.7zM382.708 107.95v125.31a25.028 25.028 0 0 1-14.265 22.595l-37.845 18.026V107.95h52.11z"/>
    <g>
        <path style="fill:#f39e22" d="M411.93 96.78v22.34c0 6.64-5.38 12.03-12.02 12.03H112.09c-6.64 0-12.02-5.39-12.02-12.03V96.78c0-6.64 5.38-12.03 12.02-12.03h287.82c6.64 0 12.02 5.39 12.02 12.03z"/>
        <path style="fill:#f9c744" d="M411.93 96.78v7.46c0 6.64-5.38 12.02-12.02 12.02H112.09c-6.64 0-12.02-5.38-12.02-12.02v-7.46c0-6.64 5.38-12.03 12.02-12.03h287.82c6.64 0 12.02 5.39 12.02 12.03z"/>
        <path style="fill:#f9c744" d="M411.93 96.78v22.34c0 6.64-5.38 12.03-12.02 12.03H256v-46.4h143.91c6.64 0 12.02 5.39 12.02 12.03z"/>
        <path style="fill:#fad98f" d="M411.93 96.78v7.46c0 6.64-5.38 12.02-12.02 12.02H256V84.75h143.91c6.64 0 12.02 5.39 12.02 12.03z"/>
        <path style="fill:#faefdc" d="M380.141 105.229h-93.237c-5.655 0-10.239-4.584-10.239-10.239 0-5.655 4.584-10.239 10.239-10.239h93.237c5.655 0 10.239 4.584 10.239 10.239 0 5.654-4.584 10.239-10.239 10.239z"/>
    </g>
    <g>
        <circle style="fill:#f9c744" cx="256" cy="352.786" r="103.563"/>
        <path style="fill:#fad98f" d="M256 456.349c57.196 0 103.563-46.367 103.563-103.563S313.196 249.223 256 249.223v207.126z"/>
        <path style="fill:#ea792e" d="M256 440.905c-48.589 0-88.119-39.53-88.119-88.119s39.53-88.119 88.119-88.119 88.119 39.53 88.119 88.119-39.53 88.119-88.119 88.119zm0-170.402c-45.371 0-82.283 36.912-82.283 82.283s36.912 82.283 82.283 82.283 82.283-36.912 82.283-82.283-36.912-82.283-82.283-82.283z"/>
        <path style="fill:#f39e22" d="M256 440.905v-5.836c45.371 0 82.283-36.912 82.283-82.283S301.371 270.503 256 270.503v-5.836c48.589 0 88.119 39.53 88.119 88.119s-39.53 88.119-88.119 88.119z"/>
        <g>
            <circle style="fill:#ea792e" cx="256" cy="352.786" r="69.108"/>
            <path style="fill:#f39e22" d="M256 421.894c38.167 0 69.108-30.941 69.108-69.108S294.167 283.678 256 283.678v138.216z"/>
        </g>
        <g>
            <path style="fill:#f4e6f4" d="M282.819 386.098h-14.881v-76.813c0-2.834-.8-5.052-2.409-6.661-3.766-3.767-10.098-2.622-14.455.142l-21.967 13.605c-2.459 1.517-3.685 3.643-3.685 6.377-.1 3.81 3.028 8.345 7.086 8.22 1.042 0 2.217-.375 3.543-1.134l13.605-8.362v64.625h-14.739c-5.761 0-8.645 2.409-8.645 7.228 0 5.01 2.884 7.511 8.645 7.511h47.902c5.669 0 8.503-2.501 8.503-7.511 0-4.818-2.835-7.227-8.503-7.227z"/>
            <path style="fill:#fff" d="M291.322 393.326c0 5.01-2.834 7.511-8.503 7.511H256V300.632c6.179-1.758 12.201 1.809 11.938 8.653v76.813h14.881c5.668 0 8.503 2.409 8.503 7.228z"/>
        </g>
    </g>
    <g>
        <path style="fill:#fff" d="M391.413 377.294h-10.57c-7.352 0-13.312-5.96-13.312-13.312v-10.57a5.78 5.78 0 1 0-11.562 0v10.57c0 7.352-5.96 13.312-13.312 13.312h-10.57a5.78 5.78 0 1 0 0 11.562h10.57c7.352 0 13.312 5.96 13.312 13.312v10.57a5.78 5.78 0 1 0 11.562 0v-10.57c0-7.352 5.96-13.312 13.312-13.312h10.57a5.78 5.78 0 1 0 0-11.562z"/>
        <path style="fill:#ff9fb4" d="M426.279 321.096h-8.125c-5.652 0-10.233-4.582-10.233-10.233v-8.125a4.444 4.444 0 0 0-8.888 0v8.125c0 5.652-4.582 10.233-10.233 10.233h-8.125a4.444 4.444 0 0 0 0 8.888h8.125c5.652 0 10.233 4.582 10.233 10.233v8.125a4.444 4.444 0 0 0 8.888 0v-8.125c0-5.652 4.582-10.233 10.233-10.233h8.125a4.444 4.444 0 0 0 0-8.888zM129.733 277.897h-10.57c-7.352 0-13.312-5.96-13.312-13.312v-10.57a5.78 5.78 0 1 0-11.562 0v10.57c0 7.352-5.96 13.312-13.312 13.312h-10.57a5.78 5.78 0 1 0 0 11.562h10.57c7.352 0 13.312 5.96 13.312 13.312v10.57a5.78 5.78 0 1 0 11.562 0v-10.57c0-7.352 5.96-13.312 13.312-13.312h10.57a5.78 5.78 0 1 0 0-11.562z"/>
    </g>
</svg>