<svg xmlns="http://www.w3.org/2000/svg" viewBox="0 0 512 512" style="enable-background:new 0 0 512 512" xml:space="preserve"><circle style="fill:#efb733" cx="256" cy="256" r="256"/><path style="fill:#6052a3" d="M382.708 107.95v125.31a25.028 25.028 0 0 1-14.265 22.595l-37.845 18.026-28.374 13.52-32.037 15.25-14.183 6.76-14.191-6.76-32.037-15.26-28.374-13.51-37.845-18.026a25.028 25.028 0 0 1-14.265-22.595V107.95h253.416z"/><path style="fill:#57409b" d="M181.402 107.95v165.93l-37.845-18.026a25.028 25.028 0 0 1-14.265-22.595V107.95h52.11zM241.813 107.95v194.7l-32.037-15.26V107.95zM302.224 107.95V287.4l-32.037 15.25v-194.7zM382.708 107.95v125.31a25.028 25.028 0 0 1-14.265 22.595l-37.845 18.026V107.95h52.11z"/><g><path style="fill:#f39e22" d="M411.93 96.78v22.34c0 6.64-5.38 12.03-12.02 12.03H112.09c-6.64 0-12.02-5.39-12.02-12.03V96.78c0-6.64 5.38-12.03 12.02-12.03h287.82c6.64 0 12.02 5.39 12.02 12.03z"/><path style="fill:#f9c744" d="M411.93 96.78v7.46c0 6.64-5.38 12.02-12.02 12.02H112.09c-6.64 0-12.02-5.38-12.02-12.02v-7.46c0-6.64 5.38-12.03 12.02-12.03h287.82c6.64 0 12.02 5.39 12.02 12.03z"/><path style="fill:#f9c744" d="M411.93 96.78v22.34c0 6.64-5.38 12.03-12.02 12.03H256v-46.4h143.91c6.64 0 12.02 5.39 12.02 12.03z"/><path style="fill:#fad98f" d="M411.93 96.78v7.46c0 6.64-5.38 12.02-12.02 12.02H256V84.75h143.91c6.64 0 12.02 5.39 12.02 12.03z"/><path style="fill:#faefdc" d="M380.141 105.229h-93.237c-5.655 0-10.239-4.584-10.239-10.239 0-5.655 4.584-10.239 10.239-10.239h93.237c5.655 0 10.239 4.584 10.239 10.239 0 5.654-4.584 10.239-10.239 10.239z"/></g><g><circle style="fill:#f9c744" cx="256" cy="352.786" r="103.563"/><path style="fill:#fad98f" d="M256 456.349c57.196 0 103.563-46.367 103.563-103.563S313.196 249.223 256 249.223v207.126z"/><path style="fill:#ea792e" d="M256 440.905c-48.589 0-88.119-39.53-88.119-88.119s39.53-88.119 88.119-88.119 88.119 39.53 88.119 88.119-39.53 88.119-88.119 88.119zm0-170.402c-45.371 0-82.283 36.912-82.283 82.283s36.912 82.283 82.283 82.283 82.283-36.912 82.283-82.283-36.912-82.283-82.283-82.283z"/><path style="fill:#f39e22" d="M256 440.905v-5.836c45.371 0 82.283-36.912 82.283-82.283S301.371 270.503 256 270.503v-5.836c48.589 0 88.119 39.53 88.119 88.119s-39.53 88.119-88.119 88.119z"/><g><circle style="fill:#ea792e" cx="256" cy="352.786" r="69.108"/><path style="fill:#f39e22" d="M256 421.894c38.167 0 69.108-30.941 69.108-69.108S294.167 283.678 256 283.678v138.216z"/></g><g><path style="fill:#f4e6f4" d="M283.319 358.112c-3.168-4.202-7.728-7.061-13.68-8.578 17.734-6.006 21.601-31.242 7.303-42.658-9.861-8.465-27.743-8.931-40.39-4.318-5.527 1.934-10.279 4.56-14.247 7.861-2.186 2.07-3.245 3.662-3.26 6.661-.108 3.538 2.356 7.527 5.952 7.511 2.399-.038 3.294-.871 5.669-2.126 7.845-5.477 15.214-8.22 22.108-8.22 8.648-.21 15.709 4.823 15.447 14.172.301 11.023-9.224 14.805-19.416 14.597h-5.669c-6.411-.294-8.741 7.937-5.027 12.263 1.175 1.467 2.851 2.192 5.027 2.192 3.142.016 9.893-.126 12.863.242 8.994.962 14.63 5.027 14.631 14.497 0 5.102-1.509 8.912-4.535 11.413-6.184 4.953-18.315 4.549-25.651 1.626-3.593-1.417-7.37-3.443-11.338-6.094-2.377-1.24-3.275-2.08-5.669-2.126-3.59-.01-6.056 3.977-5.952 7.511 0 2.551 1.084 4.777 3.259 6.661 9.176 7.879 22.939 11.397 35.255 10.687 17.484-.64 32.138-10.234 32.062-28.119.001-6.235-1.583-11.453-4.742-15.655z"/><path style="fill:#fff" d="M288.062 373.768c.076 17.894-14.579 27.469-32.062 28.119v-14.689c9.25-.862 14.633-5.346 14.631-14.989 0-9.469-5.637-13.536-14.631-14.497v-15.323c8.153-1.592 12.221-6.244 12.221-13.972.087-7.994-4.649-12.975-12.221-13.964v-14.747c16.297.514 29.752 9.829 29.653 26.444-.123 10.725-5.928 19.663-16.015 23.384 11.968 2.984 18.471 11.947 18.424 24.234z"/></g></g><g><path style="fill:#fff" d="M391.413 377.294h-10.57c-7.352 0-13.312-5.96-13.312-13.312v-10.57a5.78 5.78 0 1 0-11.562 0v10.57c0 7.352-5.96 13.312-13.312 13.312h-10.57a5.78 5.78 0 1 0 0 11.562h10.57c7.352 0 13.312 5.96 13.312 13.312v10.57a5.78 5.78 0 1 0 11.562 0v-10.57c0-7.352 5.96-13.312 13.312-13.312h10.57a5.78 5.78 0 1 0 0-11.562z"/><path style="fill:#fad98f" d="M426.279 321.096h-8.125c-5.652 0-10.233-4.582-10.233-10.233v-8.125a4.444 4.444 0 0 0-8.888 0v8.125c0 5.652-4.582 10.233-10.233 10.233h-8.125a4.444 4.444 0 0 0 0 8.888h8.125c5.652 0 10.233 4.582 10.233 10.233v8.125a4.444 4.444 0 0 0 8.888 0v-8.125c0-5.652 4.582-10.233 10.233-10.233h8.125a4.444 4.444 0 0 0 0-8.888zM129.733 277.897h-10.57c-7.352 0-13.312-5.96-13.312-13.312v-10.57a5.78 5.78 0 1 0-11.562 0v10.57c0 7.352-5.96 13.312-13.312 13.312h-10.57a5.78 5.78 0 1 0 0 11.562h10.57c7.352 0 13.312 5.96 13.312 13.312v10.57a5.78 5.78 0 1 0 11.562 0v-10.57c0-7.352 5.96-13.312 13.312-13.312h10.57a5.78 5.78 0 1 0 0-11.562z"/></g></svg>