<svg xmlns="http://www.w3.org/2000/svg" viewBox="0 0 64 64" style="enable-background:new 0 0 64 64" xml:space="preserve">
    <path style="fill:#231f20" d="M52.061 16.413 22.88 4.173V2.967A2.964 2.964 0 0 0 19.913 0a2.973 2.973 0 0 0-2.977 2.967v55.627h-2.782a2.785 2.785 0 0 0-2.782 2.782v1.697c0 .51.417.927.927.927h15.226a.93.93 0 0 0 .927-.927v-1.697a2.79 2.79 0 0 0-2.782-2.782h-2.79V30.359l29.181-12.24a.912.912 0 0 0 .566-.853.929.929 0 0 0-.566-.853zM18.791 2.967a1.118 1.118 0 0 1 2.235 0v55.627h-2.235V2.967zm6.88 57.482a.93.93 0 0 1 .927.927v.77H13.227v-.77a.93.93 0 0 1 .927-.927h11.517zM22.88 28.347V6.185l26.427 11.081L22.88 28.347z"/>
    <path style="fill:#ef6825" d="M49.307 17.266 22.88 28.347V6.185z"/>
</svg>