<svg width="17" height="17" viewBox="0 0 17 17" fill="none"
    xmlns="http://www.w3.org/2000/svg">
    <path d="M16.3817 14.593L16.3808 14.5921L11.5085 9.89733L11.5082 9.8971L10.404 8.84704L16.3808 3.1024C16.5057 2.98229 16.6074 2.84855 16.6715 2.70084C16.7345 2.55547 16.7728 2.39689 16.7728 2.23717C16.7728 2.06939 16.748 1.90938 16.6708 1.76021C16.6084 1.61671 16.5203 1.47096 16.4051 1.36027L16.4051 1.36022L16.4031 1.3585C16.2793 1.25137 16.1409 1.15418 15.9881 1.09297C15.8347 1.03154 15.6578 1.00764 15.4956 1.00764C15.3302 1.00764 15.1663 1.04431 15.0044 1.10417L15.0044 1.10415L15.0031 1.10465C14.8503 1.16585 14.7114 1.26324 14.5983 1.37194L14.6329 1.40799L14.5983 1.37194L7.72104 7.982C7.60635 8.09224 7.51771 8.22641 7.45465 8.37188L7.45463 8.37187L7.4541 8.37319C7.3917 8.52915 7.35332 8.68738 7.35332 8.84723C7.35332 9.00695 7.39163 9.16553 7.45465 9.3109C7.51771 9.45637 7.60635 9.59054 7.72104 9.70078L14.5983 16.3108L14.5982 16.3108L14.5992 16.3118C14.8403 16.5313 15.1565 16.6401 15.4834 16.6401C15.8127 16.6401 16.1287 16.5064 16.3565 16.2875C16.5964 16.0568 16.7239 15.7641 16.7242 15.4466C16.7366 15.1284 16.6091 14.8237 16.3817 14.593Z" fill="#181725" stroke="#181725" stroke-width="0.1"/>
    <path d="M1.35238 3.05476L1.3533 3.05566L6.22568 7.75044L6.22592 7.75067L7.33017 8.80073L1.35335 14.5454C1.22839 14.6655 1.12669 14.7992 1.06266 14.9469C0.999638 15.0923 0.961326 15.2509 0.961326 15.4106C0.961326 15.5784 0.986162 15.7384 1.06336 15.8876C1.12575 16.0311 1.21387 16.1768 1.32904 16.2875L1.329 16.2876L1.33098 16.2893C1.45483 16.3964 1.59324 16.4936 1.74607 16.5548C1.89946 16.6162 2.0763 16.6401 2.23853 16.6401C2.4039 16.6401 2.56783 16.6035 2.72974 16.5436L2.72975 16.5436L2.73099 16.5431C2.88382 16.4819 3.02277 16.3845 3.13587 16.2758L3.10122 16.2398L3.13587 16.2758L10.0131 9.66577C10.1278 9.55553 10.2164 9.42136 10.2795 9.27589L10.2795 9.2759L10.28 9.27458C10.3424 9.11862 10.3808 8.96039 10.3808 8.80054C10.3808 8.64082 10.3425 8.48223 10.2795 8.33687C10.2164 8.1914 10.1278 8.05723 10.0131 7.94699L3.13587 1.33693L3.13589 1.33692L3.13489 1.33601C2.89379 1.11648 2.57758 1.00766 2.25069 1.00766C1.92146 1.00766 1.60539 1.1414 1.37765 1.36029C1.13769 1.59092 1.0102 1.88367 1.00993 2.20116C0.997487 2.51939 1.12503 2.82409 1.35238 3.05476Z" fill="#181725" stroke="#181725" stroke-width="0.1"/>
</svg>
