<svg xmlns="http://www.w3.org/2000/svg" viewBox="0 0 32 32">
    <g data-name="33-Countdown">
        <path d="M16 29a13 13 0 1 1 13-13 13.015 13.015 0 0 1-13 13zm0-24a11 11 0 1 0 11 11A11.013 11.013 0 0 0 16 5z"/>
        <path d="M16 9a1 1 0 0 1-1-1V1a1 1 0 0 1 2 0v7a1 1 0 0 1-1 1zM16 32a1 1 0 0 1-1-1v-7a1 1 0 0 1 2 0v7a1 1 0 0 1-1 1zM31 17h-7a1 1 0 0 1 0-2h7a1 1 0 0 1 0 2zM8 17H1a1 1 0 0 1 0-2h7a1 1 0 0 1 0 2zM16 20a1 1 0 0 1-1-1v-3.586l-.293.293a1 1 0 0 1-1.414-1.414l2-2A1 1 0 0 1 17 13v6a1 1 0 0 1-1 1z"/>
    </g>
</svg>


