<svg width="28" height="28" viewBox="0 0 28 28" fill="none" xmlns="http://www.w3.org/2000/svg">
<path d="M9.31445 23.1816H18.6836C20.5732 23.1816 21.5488 22.1885 21.5488 20.29V12.3096C21.5488 11.0791 21.3906 10.5166 20.626 9.73438L16.0293 5.06738C15.2822 4.31152 14.667 4.13574 13.5596 4.13574H9.31445C7.43359 4.13574 6.44922 5.12891 6.44922 7.03613V20.29C6.44922 22.1885 7.43359 23.1816 9.31445 23.1816ZM9.46387 21.4238C8.62012 21.4238 8.19824 20.9844 8.19824 20.1758V7.1416C8.19824 6.3418 8.62012 5.89355 9.47266 5.89355H13.1992V10.6748C13.1992 11.9492 13.8232 12.5645 15.0889 12.5645H19.7998V20.1758C19.7998 20.9844 19.3779 21.4238 18.5254 21.4238H9.46387ZM15.2559 11.0264C14.8867 11.0264 14.7285 10.8682 14.7285 10.5078V6.12207L19.5625 11.0264H15.2559ZM17.0928 14.8672H10.7471C10.4131 14.8672 10.1758 15.1045 10.1758 15.4121C10.1758 15.7285 10.4131 15.9746 10.7471 15.9746H17.0928C17.4092 15.9746 17.6465 15.7285 17.6465 15.4121C17.6465 15.1045 17.4092 14.8672 17.0928 14.8672ZM17.0928 17.8027H10.7471C10.4131 17.8027 10.1758 18.0488 10.1758 18.3652C10.1758 18.6729 10.4131 18.9102 10.7471 18.9102H17.0928C17.4092 18.9102 17.6465 18.6729 17.6465 18.3652C17.6465 18.0488 17.4092 17.8027 17.0928 17.8027Z" fill="#343D63"/>
</svg>
