<svg width="28" height="28" viewBox="0 0 28 28" fill="none" xmlns="http://www.w3.org/2000/svg">
<path d="M9.87012 22.2324H18.1318C19.4941 22.2324 20.1621 21.5557 20.1621 20.0791V13.8301C20.1621 12.5205 19.6348 11.8438 18.5625 11.7031V9.65527C18.5625 6.31543 16.3389 4.70703 14.001 4.70703C11.6631 4.70703 9.43945 6.31543 9.43945 9.65527V11.7031C8.36719 11.8438 7.83984 12.5205 7.83984 13.8301V20.0791C7.83984 21.5557 8.50781 22.2324 9.87012 22.2324ZM11.127 9.49707C11.127 7.44922 12.4277 6.32422 14.001 6.32422C15.5654 6.32422 16.875 7.44922 16.875 9.49707V11.6768H11.127V9.49707ZM10.1514 20.6416C9.76465 20.6416 9.57129 20.457 9.57129 20V13.9092C9.57129 13.4434 9.76465 13.2764 10.1514 13.2764H17.8594C18.2461 13.2764 18.4307 13.4434 18.4307 13.9092V20C18.4307 20.457 18.2461 20.6416 17.8594 20.6416H10.1514Z" fill="black"/>
</svg>
