<svg width="206" height="57" viewBox="0 0 206 57" fill="none" xmlns="http://www.w3.org/2000/svg">
<g opacity="0.7">
<path d="M113.514 19.3287L102.341 30.5016C99.5689 33.2738 95.0737 33.2738 92.3015 30.5016C89.5294 27.7294 89.5294 23.2342 92.3015 20.462L103.474 9.28909C106.247 6.51692 110.742 6.51692 113.514 9.28909C116.286 12.0689 116.286 16.5565 113.514 19.3287Z" fill="white"/>
</g>
<g opacity="0.7">
<path d="M203.877 14.8947L179.586 39.1857C176.814 41.9579 172.319 41.9579 169.547 39.1857C166.774 36.4135 166.774 31.9183 169.547 29.1461L193.838 4.85513C196.61 2.08296 201.105 2.08296 203.877 4.85513C206.649 7.63497 206.649 12.1225 203.877 14.8947Z" fill="white"/>
</g>
<g opacity="0.7">
<path d="M179.042 16.0816L167.709 27.4154C164.936 30.1876 160.441 30.1876 157.669 27.4154C154.897 24.6432 154.897 20.148 157.669 17.3758L169.003 6.04208C171.775 3.26991 176.27 3.26991 179.042 6.04208C181.814 8.81426 181.814 13.3095 179.042 16.0816Z" fill="white"/>
</g>
<g opacity="0.7">
<path d="M169.493 39.224L157.677 27.4078C154.905 24.6356 154.905 20.1404 157.677 17.3682C160.449 14.596 164.944 14.596 167.717 17.3682L179.533 29.1844C182.305 31.9566 182.305 36.4518 179.533 39.224C176.761 41.9962 172.265 41.9962 169.493 39.224Z" fill="white"/>
</g>
<g opacity="0.7">
<path d="M180.819 27.8902L169.003 16.074C166.231 13.3018 166.231 8.80663 169.003 6.03445C171.775 3.26228 176.27 3.26228 179.043 6.03445L190.859 17.8507C193.631 20.6228 193.631 25.1181 190.859 27.8902C188.087 30.6624 183.591 30.6624 180.819 27.8902Z" fill="white"/>
</g>
<g opacity="0.7">
<path d="M140.944 26.2897L128.056 39.178C125.284 41.9502 120.789 41.9502 118.016 39.178C115.244 36.4059 115.244 31.9107 118.016 29.1385L130.905 16.2502C133.677 13.478 138.172 13.478 140.944 16.2502C143.716 19.03 143.716 23.5175 140.944 26.2897Z" fill="white"/>
</g>
<path d="M130.506 36.7352L128.056 39.1857C125.284 41.9579 120.789 41.9579 118.016 39.1857C115.244 36.4135 115.244 31.9183 118.016 29.1462L120.467 26.6956C123.239 23.9234 127.734 23.9234 130.506 26.6956C133.279 29.4678 133.279 33.963 130.506 36.7352Z" fill="white"/>
<g opacity="0.7">
<path d="M154.92 2.34333C153.358 0.781108 151.305 0 149.253 0C147.201 0 145.156 0.781108 143.594 2.34333C142.024 3.90555 141.243 5.95788 141.243 8.01021C141.243 10.0625 142.024 12.1149 143.594 13.6771C146.718 16.8015 151.788 16.8015 154.92 13.6771C156.482 12.1149 157.263 10.0625 157.263 8.01021C157.263 5.95788 156.482 3.90555 154.92 2.34333ZM149.253 9.76388C148.28 9.76388 147.499 8.98277 147.499 8.01021C147.499 7.03765 148.28 6.25654 149.253 6.25654C150.225 6.25654 151.007 7.03765 151.007 8.01021C151.007 8.98277 150.225 9.76388 149.253 9.76388Z" fill="white"/>
</g>
<g opacity="0.7">
<path d="M31.9185 20.3778L13.6007 38.6956C10.6754 41.6209 5.9351 41.6209 3.00211 38.6956C0.0767719 35.7703 0.0767719 31.03 3.00211 28.097L21.3199 9.77921C24.2452 6.85387 28.9855 6.85387 31.9185 9.77921C34.8438 12.7122 34.8438 17.4525 31.9185 20.3778Z" fill="white"/>
</g>
<g opacity="0.7">
<path d="M36.7662 35.8545L21.2895 20.3778C18.3641 17.4525 18.3641 12.7122 21.2895 9.77921C24.2148 6.85387 28.9551 6.85387 31.8881 9.77921L47.3648 25.2559C50.2901 28.1812 50.2901 32.9215 47.3648 35.8545C44.4394 38.7798 39.6915 38.7798 36.7662 35.8545Z" fill="white"/>
</g>
<g opacity="0.7">
<path d="M61.5394 29.6669L52.258 20.3854C49.3326 17.4601 49.3326 12.7198 52.258 9.78684C55.1833 6.8615 59.9236 6.8615 62.8566 9.78684L72.138 19.0683C75.0633 21.9936 75.0633 26.7339 72.138 29.6669C69.205 32.5922 64.4647 32.5922 61.5394 29.6669Z" fill="white"/>
</g>
<g opacity="0.7">
<path d="M92.0257 30.2259L82.1852 20.3854C79.2599 17.4601 79.2599 12.7198 82.1852 9.78684C85.1105 6.8615 89.8508 6.8615 92.7838 9.78684L102.624 19.6273C105.55 22.5526 105.55 27.2929 102.624 30.2259C99.6989 33.1512 94.951 33.1512 92.0257 30.2259Z" fill="white"/>
</g>
<g opacity="0.7">
<path d="M36.7663 25.2635L52.243 9.78684C55.1683 6.8615 59.9086 6.8615 62.8416 9.78684C65.7669 12.7122 65.7669 17.4524 62.8416 20.3854L47.3649 35.8621C44.4395 38.7875 39.6993 38.7875 36.7663 35.8621C33.8409 32.9291 33.8409 28.1889 36.7663 25.2635Z" fill="white"/>
</g>
<g opacity="0.7">
<path d="M102.9 29.9426L93.657 39.1858C90.8849 41.9579 86.3896 41.9579 83.6175 39.1858C80.8453 36.4136 80.8453 31.9184 83.6175 29.1462L92.8606 19.903C95.6328 17.1309 100.128 17.1309 102.9 19.903C105.672 22.6752 105.672 27.1704 102.9 29.9426Z" fill="white"/>
</g>
<path d="M1.11865 55.7651L1.42497 54.9457C1.90742 55.2597 2.29032 55.4205 2.58898 55.4205C3.11737 55.4205 3.3854 55.1984 3.3854 54.7466C3.3854 54.4249 3.12503 54.1493 2.61195 53.9195C2.21374 53.7357 1.94571 53.5979 1.80786 53.506C1.67002 53.4141 1.54749 53.3069 1.44794 53.1844C1.34839 53.0618 1.2718 52.9393 1.2182 52.8015C1.17225 52.6636 1.14163 52.5258 1.14163 52.365C1.14163 51.9667 1.28712 51.6528 1.57812 51.4307C1.86912 51.2086 2.24437 51.0938 2.71916 51.0938C3.07143 51.0938 3.51559 51.2086 4.0593 51.4307L3.81424 52.2271C3.46963 51.9514 3.13269 51.8213 2.78808 51.8213C2.58131 51.8213 2.41285 51.8672 2.26734 51.9668C2.1295 52.0663 2.05292 52.1888 2.05292 52.3343C2.05292 52.6483 2.22905 52.878 2.58131 53.0389L3.20161 53.3222C3.57685 53.4983 3.85253 53.6898 4.02866 53.9119C4.20479 54.1339 4.28904 54.4096 4.28904 54.7389C4.28904 55.1754 4.13588 55.5124 3.82956 55.7574C3.52324 56.0025 3.10205 56.125 2.55834 56.125C2.05291 56.1403 1.57047 56.0178 1.11865 55.7651Z" fill="white"/>
<path d="M14.9025 55.4971C14.5579 55.9259 14.0295 56.148 13.3173 56.148C12.9344 56.148 12.6051 56.0102 12.3294 55.7345C12.046 55.4588 11.9082 55.1142 11.9082 54.7007C11.9082 54.2106 12.1226 53.7894 12.5515 53.4524C12.9803 53.1155 13.5317 52.9393 14.1979 52.9393C14.3817 52.9393 14.5885 52.9776 14.8182 53.0542C14.8182 52.2655 14.466 51.8749 13.7691 51.8749C13.233 51.8749 12.8195 52.0204 12.5285 52.3114L12.1686 51.5915C12.3294 51.4614 12.5591 51.3465 12.8501 51.2469C13.1411 51.155 13.4168 51.1014 13.6772 51.1014C14.3817 51.1014 14.8948 51.2623 15.2088 51.5839C15.5304 51.9055 15.6836 52.411 15.6836 53.1155V54.8538C15.6836 55.2827 15.8137 55.566 16.0665 55.7039V56.1327C15.7142 56.1327 15.4538 56.0868 15.2777 55.9795C15.1092 55.8877 14.979 55.7268 14.9025 55.4971ZM14.8259 53.6669C14.5502 53.6056 14.3664 53.575 14.2515 53.575C13.815 53.575 13.4628 53.6898 13.1871 53.9119C12.9114 54.134 12.7736 54.402 12.7736 54.7083C12.7736 55.2138 13.0722 55.4665 13.6695 55.4665C14.106 55.4665 14.4889 55.2597 14.8259 54.8462V53.6669Z" fill="white"/>
<path d="M26.6352 49.9757C26.4591 49.9145 26.2983 49.8838 26.1451 49.8838C25.8847 49.8838 25.6627 49.9834 25.4942 50.1825C25.3257 50.3816 25.2415 50.6343 25.2415 50.9406C25.2415 51.0249 25.2491 51.1091 25.2645 51.1933H26.2523V51.9208H25.2645V56.0485H24.3991V51.9208H23.6946V51.1933H24.3991C24.3991 50.573 24.5523 50.0906 24.8586 49.7307C25.1649 49.3784 25.5708 49.2023 26.0685 49.2023C26.3213 49.2023 26.5893 49.2482 26.8726 49.3401L26.6352 49.9757Z" fill="white"/>
<path d="M38.4968 53.7051H34.9971C34.9971 54.2718 35.1503 54.7083 35.4643 55.0147C35.74 55.2827 36.0922 55.4129 36.5287 55.4129C37.0188 55.4129 37.4324 55.2674 37.7617 54.984L38.1216 55.6043C37.9914 55.7345 37.7846 55.8494 37.5089 55.9489C37.1643 56.0791 36.7814 56.1404 36.3603 56.1404C35.7476 56.1404 35.2345 55.9336 34.8057 55.5201C34.3309 55.0606 34.0935 54.448 34.0935 53.6822C34.0935 52.8781 34.3386 52.2425 34.821 51.7524C35.2575 51.3235 35.7706 51.1014 36.3679 51.1014C37.0571 51.1014 37.6008 51.2929 37.9991 51.6834C38.3819 52.0587 38.5734 52.5565 38.5734 53.1767C38.5581 53.3759 38.5351 53.5443 38.4968 53.7051ZM36.4062 51.8289C36.0233 51.8289 35.7017 51.9515 35.4413 52.2042C35.1962 52.4416 35.0507 52.7326 35.0201 53.0848H37.7081C37.7081 52.7402 37.6008 52.4492 37.3788 52.2118C37.1414 51.9591 36.8121 51.8289 36.4062 51.8289Z" fill="white"/>
<path d="M56.6157 56.0561V51.9285H55.9495V51.201H57.4811V56.0561H56.6157ZM57.0828 49.3631C57.2283 49.3631 57.3585 49.4167 57.4581 49.5162C57.5653 49.6234 57.6112 49.746 57.6112 49.8915C57.6112 50.037 57.5576 50.1672 57.4581 50.2744C57.3509 50.3816 57.2283 50.4275 57.0828 50.4275C56.9373 50.4275 56.8148 50.3739 56.7076 50.2744C56.6004 50.1672 56.5544 50.0446 56.5544 49.8915C56.5544 49.7383 56.6081 49.6158 56.7076 49.5162C56.8072 49.409 56.9373 49.3631 57.0828 49.3631Z" fill="white"/>
<path d="M68.8832 56.0485V55.6886C68.5846 55.9872 68.1481 56.1404 67.5737 56.1404C66.9688 56.1404 66.471 55.9259 66.0958 55.4894C65.7205 55.0529 65.5291 54.4709 65.5291 53.7511C65.5291 53.0236 65.7435 52.4033 66.18 51.8826C66.6165 51.3618 67.1372 51.1091 67.7345 51.1091C68.24 51.1091 68.6152 51.224 68.8756 51.4614V49.2099H69.7486V56.0485H68.8832ZM68.8832 52.3191C68.6688 51.9898 68.3702 51.8289 67.9873 51.8289C67.5278 51.8289 67.1526 52.0051 66.8616 52.342C66.5782 52.6866 66.4327 53.1231 66.4327 53.6592C66.4327 54.8309 66.9611 55.4129 68.0256 55.4129C68.1634 55.4129 68.3242 55.3669 68.5157 55.2827C68.7071 55.1984 68.822 55.1066 68.8756 55.007V52.3191H68.8832Z" fill="white"/>
<path d="M82.0322 53.7051H78.5325C78.5325 54.2718 78.6857 54.7083 78.9997 55.0147C79.2753 55.2827 79.6276 55.4129 80.0641 55.4129C80.5542 55.4129 80.9678 55.2674 81.297 54.984L81.657 55.6043C81.5268 55.7345 81.32 55.8494 81.0443 55.9489C80.6997 56.0791 80.3168 56.1404 79.8957 56.1404C79.283 56.1404 78.7699 55.9336 78.3411 55.5201C77.8663 55.0606 77.6289 54.448 77.6289 53.6822C77.6289 52.8781 77.8739 52.2425 78.3564 51.7524C78.7929 51.3235 79.306 51.1014 79.9033 51.1014C80.5925 51.1014 81.1362 51.2929 81.5345 51.6834C81.9174 52.0587 82.1088 52.5565 82.1088 53.1767C82.1012 53.3759 82.0782 53.5443 82.0322 53.7051ZM79.9416 51.8289C79.5587 51.8289 79.2371 51.9515 78.9767 52.2042C78.7316 52.4416 78.5861 52.7326 78.5555 53.0848H81.2435C81.2435 52.7402 81.1362 52.4492 80.9141 52.2118C80.6844 51.9591 80.3551 51.8289 79.9416 51.8289Z" fill="white"/>
<path d="M92.9598 56.0561V53.2303C92.9598 52.7173 92.8833 52.3497 92.7301 52.1429C92.5769 51.9362 92.3166 51.8289 91.949 51.8289C91.7499 51.8289 91.5508 51.8902 91.3287 52.0051C91.1143 52.12 90.9458 52.2654 90.8309 52.4416V56.0485H89.9656V51.1933H90.5553L90.8309 51.8213C91.1143 51.3465 91.5814 51.1014 92.2247 51.1014C93.2891 51.1014 93.8175 51.7447 93.8175 53.0389V56.0485H92.9598V56.0561Z" fill="white"/>
<path d="M102.318 51.8749H101.759V51.1933H102.318V50.1748L103.183 49.8455V51.1933H104.516V51.8749H103.183V54.2871C103.183 54.693 103.252 54.984 103.39 55.1601C103.528 55.3286 103.75 55.4205 104.056 55.4205C104.278 55.4205 104.508 55.3669 104.738 55.252L104.868 56.0102C104.516 56.1021 104.118 56.148 103.696 56.148C103.314 56.148 102.992 56.0025 102.724 55.7192C102.456 55.4358 102.326 55.0759 102.326 54.6394V51.8749H102.318Z" fill="white"/>
<path d="M113.078 56.0561V51.9285H112.412V51.201H113.943V56.0561H113.078ZM113.553 49.3631C113.698 49.3631 113.829 49.4167 113.928 49.5162C114.035 49.6234 114.081 49.746 114.081 49.8915C114.081 50.037 114.028 50.1672 113.928 50.2744C113.821 50.3816 113.698 50.4275 113.553 50.4275C113.407 50.4275 113.285 50.3739 113.178 50.2744C113.07 50.1672 113.017 50.0446 113.017 49.8915C113.017 49.7383 113.07 49.6158 113.17 49.5162C113.277 49.409 113.4 49.3631 113.553 49.3631Z" fill="white"/>
<path d="M124.894 49.9757C124.718 49.9145 124.557 49.8838 124.404 49.8838C124.144 49.8838 123.922 49.9834 123.753 50.1825C123.585 50.3816 123.501 50.6343 123.501 50.9406C123.501 51.0249 123.508 51.1091 123.523 51.1933H124.511V51.9208H123.523V56.0485H122.658V51.9208H121.954V51.1933H122.658C122.658 50.573 122.811 50.0906 123.118 49.7307C123.424 49.3784 123.83 49.2023 124.328 49.2023C124.58 49.2023 124.848 49.2482 125.132 49.3401L124.894 49.9757Z" fill="white"/>
<path d="M133.088 56.0561V51.9285H132.422V51.201H133.954V56.0561H133.088ZM133.556 49.3631C133.701 49.3631 133.831 49.4167 133.931 49.5162C134.038 49.6234 134.084 49.746 134.084 49.8915C134.084 50.037 134.03 50.1672 133.931 50.2744C133.824 50.3816 133.701 50.4275 133.556 50.4275C133.41 50.4275 133.287 50.3739 133.18 50.2744C133.073 50.1672 133.019 50.0446 133.019 49.8915C133.019 49.7383 133.073 49.6158 133.173 49.5162C133.287 49.409 133.41 49.3631 133.556 49.3631Z" fill="white"/>
<path d="M145.946 51.5915L145.517 52.1965C145.425 52.1123 145.272 52.0281 145.05 51.9438C144.828 51.8596 144.606 51.8289 144.391 51.8289C143.924 51.8289 143.549 51.9898 143.273 52.3191C142.998 52.6483 142.86 53.1002 142.86 53.6669C142.86 54.2335 142.998 54.67 143.281 54.9687C143.564 55.2674 143.955 55.4129 144.453 55.4129C144.835 55.4129 145.226 55.2597 145.624 54.9611L145.961 55.6886C145.502 55.9872 144.927 56.1404 144.246 56.1404C143.587 56.1404 143.036 55.9183 142.607 55.4741C142.178 55.03 141.956 54.425 141.956 53.6669C141.956 52.8934 142.178 52.2731 142.63 51.806C143.082 51.3388 143.694 51.1014 144.476 51.1014C144.728 51.1014 144.996 51.1551 145.295 51.2623C145.594 51.3695 145.808 51.4767 145.946 51.5915Z" fill="white"/>
<path d="M156.59 55.4971C156.245 55.9259 155.717 56.148 155.005 56.148C154.622 56.148 154.293 56.0102 154.017 55.7345C153.734 55.4588 153.596 55.1142 153.596 54.7007C153.596 54.2106 153.81 53.7894 154.239 53.4524C154.668 53.1155 155.219 52.9393 155.885 52.9393C156.069 52.9393 156.268 52.9776 156.506 53.0542C156.506 52.2655 156.153 51.8749 155.457 51.8749C154.921 51.8749 154.507 52.0204 154.216 52.3114L153.856 51.5915C154.017 51.4614 154.247 51.3465 154.53 51.2469C154.821 51.155 155.097 51.1014 155.357 51.1014C156.062 51.1014 156.575 51.2623 156.889 51.5839C157.21 51.9055 157.371 52.411 157.371 53.1155V54.8538C157.371 55.2827 157.501 55.566 157.754 55.7039V56.1327C157.402 56.1327 157.141 56.0868 156.965 55.9795C156.789 55.8877 156.667 55.7268 156.59 55.4971ZM156.506 53.6669C156.23 53.6056 156.046 53.575 155.931 53.575C155.495 53.575 155.143 53.6898 154.867 53.9119C154.591 54.134 154.453 54.402 154.453 54.7083C154.453 55.2138 154.752 55.4665 155.349 55.4665C155.786 55.4665 156.169 55.2597 156.506 54.8462V53.6669Z" fill="white"/>
<path d="M165.995 51.8749H165.436V51.1933H165.995V50.1748L166.86 49.8455V51.1933H168.192V51.8749H166.86V54.2871C166.86 54.693 166.929 54.984 167.067 55.1601C167.205 55.3286 167.427 55.4205 167.733 55.4205C167.955 55.4205 168.185 55.3669 168.414 55.252L168.545 56.0102C168.185 56.1021 167.794 56.148 167.373 56.148C166.99 56.148 166.668 56.0025 166.4 55.7192C166.14 55.4358 166.002 55.0759 166.002 54.6394V51.8749H165.995Z" fill="white"/>
<path d="M176.753 56.0561V51.9285H176.087V51.201H177.619V56.0561H176.753ZM177.221 49.3631C177.366 49.3631 177.496 49.4167 177.596 49.5162C177.703 49.6234 177.749 49.746 177.749 49.8915C177.749 50.037 177.695 50.1672 177.596 50.2744C177.489 50.3816 177.366 50.4275 177.221 50.4275C177.075 50.4275 176.953 50.3739 176.845 50.2744C176.738 50.1672 176.685 50.0446 176.685 49.8915C176.685 49.7383 176.738 49.6158 176.838 49.5162C176.953 49.409 177.075 49.3631 177.221 49.3631Z" fill="white"/>
<path d="M185.629 53.6133C185.629 52.8628 185.828 52.2578 186.234 51.7983C186.64 51.3388 187.169 51.1091 187.827 51.1091C188.524 51.1091 189.06 51.3312 189.443 51.7753C189.826 52.2195 190.017 52.8321 190.017 53.6209C190.017 54.402 189.818 55.0223 189.428 55.4741C189.037 55.926 188.501 56.148 187.82 56.148C187.13 56.148 186.587 55.9183 186.204 55.4665C185.821 54.9993 185.629 54.3867 185.629 53.6133ZM186.533 53.6133C186.533 54.8309 186.962 55.4435 187.827 55.4435C188.225 55.4435 188.547 55.2827 188.769 54.9534C188.999 54.6241 189.114 54.1799 189.114 53.6133C189.114 52.411 188.685 51.806 187.827 51.806C187.437 51.806 187.123 51.9668 186.885 52.2884C186.656 52.6101 186.533 53.0542 186.533 53.6133Z" fill="white"/>
<path d="M200.883 56.0561V53.2303C200.883 52.7173 200.807 52.3497 200.653 52.1429C200.5 51.9362 200.24 51.8289 199.872 51.8289C199.673 51.8289 199.466 51.8902 199.252 52.0051C199.038 52.12 198.869 52.2654 198.754 52.4416V56.0485H197.896V51.1933H198.486L198.754 51.8213C199.038 51.3465 199.505 51.1014 200.148 51.1014C201.212 51.1014 201.741 51.7447 201.741 53.0389V56.0485H200.883V56.0561Z" fill="white"/>
</svg>
