<svg width="28" height="28" viewBox="0 0 28 28" fill="none" xmlns="http://www.w3.org/2000/svg">
<path d="M13.9902 22.7422C18.9736 22.7422 23.0869 18.6289 23.0869 13.6543C23.0869 8.67969 18.9648 4.56641 13.9814 4.56641C9.00684 4.56641 4.90234 8.67969 4.90234 13.6543C4.90234 18.6289 9.01562 22.7422 13.9902 22.7422ZM13.9902 20.9316C9.95605 20.9316 6.73047 17.6885 6.73047 13.6543C6.73047 9.62012 9.95605 6.38574 13.9814 6.38574C18.0156 6.38574 21.2588 9.62012 21.2676 13.6543C21.2764 17.6885 18.0244 20.9316 13.9902 20.9316ZM13.7969 15.4033C14.2803 15.4033 14.5879 15.1221 14.6143 14.7617C14.6143 14.7354 14.6143 14.6914 14.623 14.6562C14.6494 14.208 14.957 13.9092 15.5283 13.5312C16.3984 12.9688 16.9521 12.459 16.9521 11.4482C16.9521 9.98926 15.6338 9.14551 14.0693 9.14551C12.5664 9.14551 11.5381 9.83105 11.2656 10.6572C11.2129 10.8066 11.1777 10.9561 11.1777 11.1143C11.1777 11.5449 11.5117 11.8086 11.916 11.8086C12.4346 11.8086 12.5488 11.5449 12.8213 11.2461C13.1025 10.8066 13.4717 10.5518 13.9902 10.5518C14.6846 10.5518 15.1416 10.9473 15.1416 11.5361C15.1416 12.0723 14.7725 12.3623 14.0254 12.8721C13.4014 13.3115 12.9443 13.7598 12.9443 14.5508V14.6475C12.9443 15.1484 13.252 15.4033 13.7969 15.4033ZM13.7793 18.1016C14.3418 18.1016 14.8076 17.6973 14.8076 17.1348C14.8076 16.5811 14.3506 16.168 13.7793 16.168C13.208 16.168 12.7422 16.5811 12.7422 17.1348C12.7422 17.6885 13.208 18.1016 13.7793 18.1016Z" fill="#343D63"/>
</svg>
