<svg xmlns="http://www.w3.org/2000/svg" viewBox="0 0 1000 1000" xml:space="preserve">

        <g>
            <circle fill="#382B73" cx="500" cy="500" r="398"/>
            <circle fill="#473080" cx="500" cy="500" r="344.3"/>
            <path fill="#382B73" d="M693.1 365.9h-81.8v-38.6c0-8.3-6.7-15-15-15H403.7c-8.3 0-15 6.7-15 15v38.6h-81.8c-8.3 0-15 6.7-15 15 0 40.5 12.5 78.8 35.2 107.7 19.6 24.9 44.7 40.6 72.1 45.1.6 1.2 1.2 2.5 1.8 3.7 1.8 3.6 3.9 7 6.1 10.4.5.7 1 1.4 1.4 2.1 2.2 3.2 4.6 6.3 7.2 9.3.7.8 1.4 1.6 2.2 2.4 1.1 1.3 2.3 2.5 3.5 3.7 4.8 4.8 10 9.1 15.6 13 1 .7 2.1 1.4 3.1 2.1 3.8 2.4 7.7 4.6 11.7 6.6 4.9 2.4 10 4.4 15.3 6 .1.4.1.7.2 1.1.4 2.2.9 4.4 1.3 6.6 0 .3.1.5.1.8.2 1.3.4 2.5.6 3.8 0 .3.1.6.1.9.4 2.6.8 5.2 1.1 7.9 3.4 26.7 2.7 53.8-2 80.4h-39.8c-2.6 0-5.2.3-7.7.8-.2 0-.5.1-.7.1-1 .2-2 .5-3.1.8l-.9.3c-3 1-5.8 2.2-8.4 3.8-.5.3-1.1.7-1.6 1-.8.5-1.5 1.1-2.2 1.6-.6.4-1.1.9-1.6 1.3-6.8 5.9-11.5 14-13.2 23.2 0 .2-.1.3-.1.5-.1.3-.1.7-.2 1 0 .3-.1.6-.1.9 0 .3-.1.6-.1.9 0 .4-.1.8-.1 1.1V734.4c0 .4 0 .8.1 1.1 0 .2 0 .3.1.5 0 .2.1.4.1.6.4 2.5 1.6 4.8 3.3 6.7 2.4 2.6 5.9 4.3 9.7 4.3H598.2c3.6 0 6.9-1.5 9.3-3.9 1.9-1.9 3.2-4.4 3.7-7.1 0-.2.1-.4.1-.6 0-.2 0-.3.1-.5 0-.4.1-.8.1-1.1V731.8c0-.4-.1-.8-.1-1.1 0-.3-.1-.6-.1-.9 0-.3-.1-.6-.1-.9 0-.3-.1-.7-.2-1 0-.2-.1-.3-.1-.5-1.6-9.2-6.4-17.3-13.2-23.2-.5-.5-1.1-.9-1.6-1.3-.7-.6-1.5-1.1-2.2-1.6-.5-.4-1.1-.7-1.6-1-2.6-1.6-5.4-2.9-8.4-3.8l-.9-.3c-1-.3-2-.6-3.1-.8-.2-.1-.5-.1-.7-.1-2.5-.5-5.1-.8-7.7-.8h-39.8c-4.7-26.6-5.4-53.7-2-80.4.3-2.6.7-5.3 1.1-7.9 0-.3.1-.6.1-.9.2-1.3.4-2.5.6-3.8 0-.3.1-.5.1-.8.4-2.2.8-4.4 1.3-6.6.1-.4.1-.7.2-1.1 5.3-1.6 10.4-3.7 15.3-6 4.1-2 8-4.1 11.7-6.6 1.1-.7 2.1-1.4 3.1-2.1 5.6-3.8 10.8-8.2 15.6-13 1.2-1.2 2.4-2.4 3.5-3.7.7-.8 1.5-1.6 2.2-2.4 2.6-3 5-6.1 7.2-9.3.5-.7 1-1.4 1.4-2.1 2.2-3.3 4.2-6.8 6.1-10.4.6-1.2 1.2-2.4 1.8-3.7 27.4-4.6 52.5-20.2 72.1-45.1 22.7-28.9 35.2-67.2 35.2-107.7-.2-8.3-6.9-15-15.2-15zm-33.2 88.3-3 5.1c-.3.6-.7 1.1-1.1 1.7-2.1 3.3-4.3 6.4-6.7 9.4-.8 1-1.5 1.9-2.3 2.8-2.1 2.5-4.3 4.9-6.6 7.2-2.3 2.2-4.6 4.4-7.1 6.3-1.5 1.2-2.9 2.3-4.5 3.4-.4.3-.7.5-1.1.7-2 1.4-4 2.7-6 3.8-.5.3-1.1.6-1.6.9-2.5 1.4-5.1 2.6-7.7 3.7-.6.3-1.3.5-1.9.8.5-4.4.8-8.9.8-13.4v-90.8h60.6c.8 0 1.5.2 2.1.5.3.1.6.3.9.5.3.2.5.4.8.7.2.3.4.5.6.8.2.3.3.6.4 1 .2.7.3 1.4.2 2.1-2.4 19.1-8.2 36.8-16.5 51.9 0 .4-.1.7-.3.9zm-280 41.4c-.6-.3-1.1-.6-1.6-.9-2.1-1.2-4.1-2.5-6-3.8-.4-.2-.7-.5-1.1-.7-1.5-1.1-3-2.2-4.5-3.4-2.4-2-4.8-4.1-7.1-6.3-2.3-2.3-4.5-4.6-6.6-7.2-.8-.9-1.5-1.9-2.3-2.8-2.3-3-4.6-6.1-6.7-9.4-.4-.6-.7-1.1-1.1-1.7l-3-5.1c-.1-.3-.3-.5-.4-.8-8.3-15.1-14-32.8-16.5-51.9-.1-.7 0-1.5.2-2.1.1-.3.2-.7.4-1 .2-.3.4-.6.6-.8.2-.3.5-.5.8-.7.3-.2.6-.4.9-.5.6-.3 1.3-.5 2.1-.5h60.6v90.8c0 4.5.3 9 .8 13.4-.6-.2-1.3-.5-1.9-.8-2.5-1.2-5.1-2.4-7.6-3.8z"/>
            <g>
                <path fill="#E7AD27" d="M546.6 527.6a269.04 269.04 0 0 0 0 200h-93.2a269.04 269.04 0 0 0 0-200h93.2z"/>
                <path fill="#F7CB15" d="M527.3 527.6c-15.1 64.2-15.1 135.8 0 200h-54.6c15.1-64.2 15.1-135.8 0-200h54.6zM584 515.1v-30c46.6 0 85.4-44.9 92.8-103.6.4-3-2-5.6-5-5.6H584v-30h109.1c8.3 0 15 6.7 15 15 0 40.5-12.5 78.8-35.2 107.7-23.4 30-55 46.5-88.9 46.5z"/>
                <path fill="#E7AD27" d="M659.5 462.8c19.2-24.5 29.8-57 29.8-91.4 0-7-5.7-12.7-12.7-12.7H584v17.2h87.8c3 0 5.3 2.6 5 5.6-7.5 58.7-46.2 103.6-92.8 103.6v17.2c28.7 0 55.6-14 75.5-39.5z"/>
                <path fill="#F7CB15" d="M416 515.1v-30c-46.6 0-85.4-44.9-92.8-103.6-.4-3 2-5.6 5-5.6H416v-30H306.9c-8.3 0-15 6.7-15 15 0 40.5 12.5 78.8 35.2 107.7 23.4 30 55 46.5 88.9 46.5z"/>
                <path fill="#E7AD27" d="M340.5 462.8c-19.2-24.5-29.8-57-29.8-91.4 0-7 5.7-12.7 12.7-12.7H416v17.2h-87.8c-3 0-5.3 2.6-5 5.6 7.5 58.7 46.2 103.6 92.8 103.6v17.2c-28.7 0-55.6-14-75.5-39.5zM453.4 527.6c8.6 21.5 14.3 43.8 17.1 66.4 9.4 2.6 19.2 3.9 29.4 3.9s20.1-1.4 29.4-3.9c2.8-22.6 8.5-44.9 17.1-66.4h-93z"/>
                <path fill="#F7CB15" d="M500 578c-61.5 0-111.3-49.8-111.3-111.3V307.4c0-8.3 6.7-15 15-15h192.6c8.3 0 15 6.7 15 15v159.4c0 61.4-49.8 111.2-111.3 111.2z"/>
                <path fill="#FEDE3A" d="M500 578c-47.7 0-86.3-38.7-86.3-86.3V304c0-6.4 5.2-11.6 11.6-11.6h149.4c6.4 0 11.6 5.2 11.6 11.6v187.7c0 47.6-38.6 86.3-86.3 86.3z"/>
                <path fill="#E7AD27" d="M563.6 401.3c.1-1.6-.6-3.1-1.9-4.1 0 0-.1 0-.1-.1-.2-.1-.4-.3-.6-.4-.1 0-.2-.1-.2-.1-.2-.1-.4-.1-.6-.2-.1 0-.2 0-.3-.1-.3-.1-.6-.1-.9-.1h-38.4c-.8 0-1.6-.2-2.2-.6-1-.6-1.8-1.5-2.2-2.6l-3.9-11.8-8-24.6c-.3-.8-.7-1.4-1.2-1.9-1.7-1.7-4.6-1.7-6.4 0-.5.5-.9 1.1-1.2 1.9l-8 24.6-3.9 11.8c-.4 1.1-1.2 2.1-2.2 2.6-.7.4-1.4.6-2.2.6H441c-.3 0-.6 0-.9.1-.1 0-.2 0-.3.1-.2.1-.4.1-.6.2-.1 0-.2.1-.2.1-.2.1-.4.2-.6.4 0 0-.1 0-.1.1-1.3.9-2 2.5-1.9 4.1v14.4c-.1 1.4.5 2.9 1.9 3.9l29.8 21.7-9 27.6c-.2.6-.3 1.2-.2 1.8v14.6c-.1 3.6 4.1 6.1 7.3 3.8l31-22.6a4.5 4.5 0 0 1 5.4 0l31 22.6c3.2 2.3 7.4-.2 7.3-3.8v-14.6c0-.6 0-1.2-.2-1.8l-9-27.6 29.8-21.7c1.4-1 2-2.5 1.9-3.9v-.3l.2-14.1z"/>
                <path fill="#BCBEC0" d="M458.9 474.9v.3c-.1 3.6 4.1 6.1 7.3 3.8l31-22.6a4.5 4.5 0 0 1 5.4 0l31 22.6c3.2 2.3 7.4-.2 7.3-3.8V460.5c0-.5 0-1.1-.2-1.7l-9-27.6 29.8-21.7c1.4-1 2-2.5 1.9-3.9V390.9c0-2.4-1.7-4.7-4.6-4.7h-38.4c-2 0-3.8-1.3-4.4-3.2l-11.9-36.5c-1.4-4.3-7.4-4.3-8.8 0L483.4 383c-.6 1.9-2.4 3.2-4.4 3.2h-38c-2.9 0-4.6 2.3-4.6 4.7V405.6c-.1 1.4.5 2.9 1.9 3.9l29.8 21.7-9 27.6c-.2.6-.2 1.1-.2 1.7v14.4z"/>
                <path fill="#FFF" d="m504.4 346.6 11.9 36.5c.6 1.9 2.4 3.2 4.4 3.2H559c4.5 0 6.3 5.7 2.7 8.3l-31 22.6c-1.6 1.2-2.3 3.3-1.7 5.2l11.9 36.5c1.4 4.3-3.5 7.8-7.1 5.2l-31-22.6a4.5 4.5 0 0 0-5.4 0l-31 22.6c-3.6 2.6-8.5-.9-7.1-5.2l11.9-36.5c.6-1.9-.1-4-1.7-5.2l-31-22.6c-3.6-2.6-1.8-8.3 2.7-8.3h38.4c2 0 3.8-1.3 4.4-3.2l11.9-36.5c1.1-4.2 7.1-4.2 8.5 0z"/>
                <path fill="#FEDE3A" d="M598.1 727.6H401.9c-7.3 0-13.2-5.9-13.2-13.2 0-22.1 17.9-40 40-40h142.6c22.1 0 40 17.9 40 40 0 7.4-5.9 13.2-13.2 13.2z"/>
                <path fill="#FFF335" d="M571.3 674.5H428.7c-22.1 0-40 17.9-40 40 0 1.3.2 2.5.5 3.6 3.1-19.1 19.6-33.6 39.5-33.6h142.6c19.9 0 36.4 14.6 39.5 33.6.3-1.1.5-2.4.5-3.6 0-22.1-17.9-40-40-40z"/>
                <path fill="#F7CB15" d="M598.1 707.6H401.9c-4.6 0-8.7-2.4-11-6-1.4 4-2.1 8.4-2.1 12.8 0 7.3 5.9 13.2 13.2 13.2h196.2c7.3 0 13.2-5.9 13.2-13.2 0-4.5-.8-8.8-2.1-12.8-2.5 3.7-6.5 6-11.2 6zM500 554.5c-61.5 0-111.3-49.8-111.3-111.3v23.5c0 61.5 49.8 111.3 111.3 111.3s111.3-49.8 111.3-111.3v-23.5c0 61.4-49.8 111.3-111.3 111.3zM388.7 318.6h222.6v12H388.7z"/>
            </g>
        </g>
 
</svg>