<svg width="19" height="19" viewBox="0 0 19 19" fill="none"
    xmlns="http://www.w3.org/2000/svg">
    <path d="M8.00636 14.1165C8.79429 14.1165 9.57451 13.9613 10.3025 13.6597C11.0304 13.3582 11.6919 12.9163 12.249 12.3591C12.8062 11.802 13.2481 11.1405 13.5496 10.4126C13.8512 9.68462 14.0064 8.9044 14.0064 8.11647C14.0064 7.32854 13.8512 6.54832 13.5496 5.82037C13.2481 5.09242 12.8062 4.43098 12.249 3.87383C11.6919 3.31668 11.0304 2.87472 10.3025 2.57319C9.57451 2.27166 8.79429 2.11647 8.00636 2.11647C6.41506 2.11647 4.88894 2.74861 3.76372 3.87383C2.6385 4.99905 2.00636 6.52517 2.00636 8.11647C2.00636 9.70777 2.6385 11.2339 3.76372 12.3591C4.88894 13.4843 6.41506 14.1165 8.00636 14.1165ZM14.3264 13.0225L17.9064 16.6025C18.0018 16.6948 18.0779 16.8052 18.1302 16.9272C18.1825 17.0493 18.21 17.1805 18.2111 17.3133C18.2122 17.4461 18.1868 17.5777 18.1364 17.7006C18.086 17.8234 18.0117 17.935 17.9177 18.0289C17.8238 18.1227 17.7121 18.1969 17.5891 18.2471C17.4662 18.2973 17.3345 18.3225 17.2017 18.3212C17.069 18.32 16.9378 18.2923 16.8158 18.2398C16.6938 18.1873 16.5835 18.111 16.4914 18.0155L12.9114 14.4355C11.3038 15.6833 9.28116 16.2716 7.25512 16.0807C5.22908 15.8897 3.35197 14.9338 2.00591 13.4075C0.659859 11.8813 -0.0539527 9.89942 0.00978839 7.86539C0.0735295 5.83137 0.910032 3.89809 2.34901 2.45912C3.78799 1.02014 5.72126 0.183637 7.75529 0.119896C9.78931 0.0561547 11.7712 0.769967 13.2974 2.11602C14.8237 3.46208 15.7796 5.33918 15.9706 7.36522C16.1615 9.39126 15.5732 11.4139 14.3254 13.0215L14.3264 13.0225Z" fill="#181B19"/>
</svg>
